<svg width="30" height="25" viewBox="0 0 30 25" fill="none" xmlns="http://www.w3.org/2000/svg">
<path d="M28.7502 19.9999H1.25012C0.911355 19.9999 0.618356 20.124 0.370986 20.3713C0.123616 20.6184 0 20.9116 0 21.2501V23.7504C0 24.0889 0.123616 24.3818 0.371054 24.6293C0.618629 24.8765 0.911628 25.0003 1.25019 25.0003H28.7503C29.0888 25.0003 29.3816 24.8765 29.6292 24.6293C29.8764 24.3819 30 24.089 30 23.7504V21.2501C30 20.9116 29.8769 20.6185 29.6292 20.3713C29.3816 20.124 29.089 19.9999 28.7502 19.9999Z" fill="white"/>
<path d="M29.6291 0.371191C29.3816 0.123753 29.0888 0 28.7502 0H1.25012C0.911355 0 0.618356 0.123753 0.370986 0.371191C0.123616 0.618492 0 0.911491 0 1.24991V3.75009C0 4.08865 0.123616 4.38144 0.371054 4.62895C0.618629 4.87645 0.911628 5 1.25019 5H28.7503C29.0888 5 29.3816 4.87638 29.6292 4.62895C29.8764 4.38151 30 4.08865 30 3.75009V1.24991C29.9999 0.911491 29.8765 0.618492 29.6291 0.371191Z" fill="white"/>
<path d="M28.7502 10H1.25012C0.911355 10 0.618356 10.1238 0.370986 10.3712C0.123616 10.6185 0 10.9115 0 11.25V13.7502C0 14.0886 0.123616 14.382 0.371054 14.629C0.618629 14.8762 0.911628 15.0003 1.25019 15.0003H28.7503C29.0888 15.0003 29.3816 14.8763 29.6292 14.629C29.8764 14.3821 30 14.0887 30 13.7502V11.25C30 10.9115 29.8764 10.6185 29.6292 10.3711C29.3816 10.1237 29.089 10 28.7502 10Z" fill="white"/>
</svg>
