<svg width="29" height="30" viewBox="0 0 29 30" fill="none" xmlns="http://www.w3.org/2000/svg">
<path d="M13 29.1668L13 10.8334C13 10.6076 12.8763 10.4122 12.6288 10.2473C12.3816 10.0824 12.0886 10 11.7501 10L9.2501 10C8.91163 10 8.61831 10.0824 8.3713 10.2474C8.12409 10.4124 8 10.6078 8 10.8335L8 29.1669C8 29.3925 8.12402 29.5878 8.3713 29.7528C8.61824 29.9176 8.91157 30 9.2501 30L11.7501 30C12.0886 30 12.3815 29.9176 12.6289 29.7528C12.8763 29.5878 13 29.3927 13 29.1668Z" fill="#7AC4E3" fill-opacity="0.4"/>
<path d="M21 28.9585L21 6.04177C21 5.75946 20.8763 5.5153 20.6288 5.30916C20.3816 5.10301 20.0886 5 19.7501 5L17.2501 5C16.9116 5 16.6183 5.10301 16.3713 5.30921C16.1241 5.51552 16 5.75969 16 6.04182L16 28.9586C16 29.2406 16.124 29.4847 16.3713 29.691C16.6182 29.897 16.9116 30 17.2501 30L19.7501 30C20.0886 30 20.3815 29.897 20.6289 29.691C20.8763 29.4847 21 29.2408 21 28.9585Z" fill="#7AC4E3" fill-opacity="0.4"/>
<path d="M5 29.4584L5 17.5417C5 17.3949 4.87626 17.268 4.62883 17.1608C4.38155 17.0536 4.08857 17 3.7501 17L1.2501 17C0.911634 17 0.618314 17.0536 0.371303 17.1608C0.124087 17.2681 4.59569e-07 17.395 4.53157e-07 17.5417L-6.77394e-08 29.4585C-7.4151e-08 29.6051 0.124018 29.732 0.371303 29.8393C0.618245 29.9464 0.911566 30 1.2501 30L3.7501 30C4.08857 30 4.38155 29.9464 4.6289 29.8393C4.87632 29.732 5 29.6052 5 29.4584Z" fill="#7AC4E3"/>
<path d="M29.0004 28.7502L29.0004 1.25012C29.0004 0.911355 28.8766 0.618356 28.6292 0.370986C28.3819 0.123616 28.0889 -3.98426e-08 27.7504 -5.46385e-08L25.2502 -1.63924e-07C24.9117 -1.7872e-07 24.6184 0.123616 24.3714 0.371054C24.1241 0.618629 24 0.911628 24 1.25019L24 28.7503C24 29.0888 24.124 29.3816 24.3714 29.6292C24.6183 29.8764 24.9117 30 25.2502 30L27.7504 30C28.0889 30 28.3819 29.8764 28.6292 29.6292C28.8767 29.3816 29.0004 29.089 29.0004 28.7502Z" fill="#7AC4E3" fill-opacity="0.4"/>
</svg>
