<svg width="21" height="21" viewBox="0 0 21 21" fill="none" xmlns="http://www.w3.org/2000/svg">
<path d="M5.79826 4.77906C5.4954 4.47595 5.00403 4.47595 4.70117 4.77906C3.57669 5.90354 3.024 7.47001 3.18462 9.07708C3.22469 9.47744 3.56196 9.77587 3.95583 9.77587C3.98172 9.77587 4.0078 9.77456 4.03368 9.77197C4.46016 9.72931 4.77127 9.34885 4.72861 8.92266C4.6143 7.78058 5.00432 6.67008 5.79826 5.8761C6.10136 5.57328 6.10136 5.08187 5.79826 4.77906Z" fill="white"/>
<path d="M8.8707 0C3.97938 0 0 3.97938 0 8.8707C0 13.762 3.97938 17.7414 8.8707 17.7414C13.762 17.7414 17.7414 13.762 17.7414 8.8707C17.7414 3.97938 13.762 0 8.8707 0ZM8.8707 16.1896C4.83492 16.1896 1.55174 12.9065 1.55174 8.8707C1.55174 4.83492 4.83492 1.55174 8.8707 1.55174C12.9062 1.55174 16.1896 4.83492 16.1896 8.8707C16.1896 12.9065 12.9065 16.1896 8.8707 16.1896Z" fill="white"/>
<path d="M20.7727 19.6756L15.1347 14.0377C14.8316 13.7346 14.3407 13.7346 14.0376 14.0377C13.7345 14.3406 13.7345 14.8319 14.0376 15.1348L19.6756 20.7727C19.8271 20.9242 20.0255 21 20.2241 21C20.4228 21 20.6211 20.9242 20.7727 20.7727C21.0757 20.4698 21.0757 19.9785 20.7727 19.6756Z" fill="white"/>
</svg>
