<svg width="34" height="34" viewBox="0 0 34 34" fill="none" xmlns="http://www.w3.org/2000/svg">
<path d="M29.0209 4.97917C25.81 1.76833 21.5408 0 17.0001 0C12.459 0 8.19008 1.76833 4.97923 4.97917C1.76839 8.19002 6.10352e-05 12.459 6.10352e-05 17C6.10352e-05 21.5408 1.76839 25.81 4.97923 29.0208C8.19008 32.2317 12.459 34 17.0001 34C21.5408 34 25.81 32.2317 29.0209 29.0208C32.2317 25.81 34.0001 21.5408 34.0001 17C34.0001 12.459 32.2317 8.19002 29.0209 4.97917ZM8.52263 29.3772C9.23364 25.2834 12.7812 22.2637 17.0001 22.2637C21.2192 22.2637 24.7665 25.2834 25.4775 29.3772C23.0638 31.0356 20.1435 32.0078 17.0001 32.0078C13.8567 32.0078 10.9363 31.0356 8.52263 29.3772ZM11.5947 14.8662C11.5947 11.8854 14.0196 9.46082 17.0001 9.46082C19.9806 9.46082 22.4054 11.8857 22.4054 14.8662C22.4054 17.8467 19.9806 20.2715 17.0001 20.2715C14.0196 20.2715 11.5947 17.8467 11.5947 14.8662ZM27.203 27.9954C26.6668 26.0896 25.602 24.3605 24.1094 23.0098C23.1937 22.181 22.1515 21.527 21.0309 21.0661C23.0563 19.745 24.3979 17.4594 24.3979 14.8662C24.3979 10.7871 21.0791 7.46863 17.0001 7.46863C12.921 7.46863 9.60251 10.7871 9.60251 14.8662C9.60251 17.4594 10.9441 19.745 12.9693 21.0661C11.8489 21.527 10.8064 22.1807 9.8907 23.0095C8.39838 24.3602 7.33328 26.0894 6.7971 27.9952C3.84384 25.2525 1.99225 21.3387 1.99225 17C1.99225 8.72464 8.7247 1.99219 17.0001 1.99219C25.2754 1.99219 32.0079 8.72464 32.0079 17C32.0079 21.339 30.1563 25.2528 27.203 27.9954Z"/>
</svg>
