<svg width="41" height="47" viewBox="0 0 41 47" fill="none" xmlns="http://www.w3.org/2000/svg">
<path d="M12.0775 33.2572C11.4112 33.2572 10.8675 32.7103 10.8675 32.0371C10.8675 31.3639 11.4074 30.817 12.0775 30.817H19.9275C20.5938 30.817 21.1376 31.3639 21.1376 32.0371C21.1376 32.7103 20.5976 33.2572 19.9275 33.2572H12.0775ZM12.0775 16.1677C11.4112 16.1677 10.8713 15.6284 10.8713 14.9629C10.8713 14.2974 11.4112 13.7581 12.0775 13.7581H28.0111C28.6774 13.7581 29.2173 14.2974 29.2173 14.9629C29.2173 15.6284 28.6774 16.1677 28.0111 16.1677H12.0775ZM21.7694 44.5903C22.4357 44.5903 22.9756 45.1296 22.9756 45.7952C22.9756 46.4607 22.4357 47 21.7694 47H2.80686C2.03334 47 1.33259 46.6864 0.823293 46.1777C0.314 45.6689 0 44.969 0 44.1964V2.80363C0 2.03101 0.314 1.33105 0.823293 0.822347C1.33259 0.313639 2.03334 0 2.80686 0H37.278C38.0515 0 38.7522 0.313639 39.2615 0.822347C39.7708 1.33105 40.0848 2.03101 40.0848 2.80363V27.7686C40.0848 28.4341 39.5449 28.9734 38.8786 28.9734C38.2123 28.9734 37.6724 28.4341 37.6724 27.7686V2.80363C37.6724 2.69653 37.6264 2.59709 37.5575 2.52441C37.4847 2.45174 37.3852 2.40967 37.278 2.40967H2.80686C2.69964 2.40967 2.60007 2.45557 2.52732 2.52441C2.45839 2.60091 2.41244 2.69653 2.41244 2.80363V44.1925C2.41244 44.2996 2.45839 44.3991 2.52732 44.4718C2.60007 44.5444 2.69964 44.5865 2.80686 44.5865H21.7694V44.5903ZM31.917 32.0142C31.917 31.3525 32.4569 30.8132 33.1194 30.8132C33.7818 30.8132 34.3218 31.3525 34.3218 32.0142L34.3064 37.5067L39.7976 37.522C40.4601 37.522 41 38.0613 41 38.723C41 39.3847 40.4601 39.924 39.7976 39.924L34.3026 39.9087L34.2873 45.3936C34.2873 46.0553 33.7474 46.5946 33.0849 46.5946C32.4224 46.5946 31.8825 46.0553 31.8825 45.3936L31.8978 39.9049L26.4067 39.8896C25.7442 39.8896 25.2043 39.3503 25.2043 38.6886C25.2043 38.0269 25.7442 37.4876 26.4067 37.4876L31.9055 37.5028L31.917 32.0142ZM12.0775 24.7048C11.4112 24.7048 10.8713 24.1655 10.8713 23.5C10.8713 22.8345 11.4112 22.2952 12.0775 22.2952H28.0111C28.6774 22.2952 29.2173 22.8345 29.2173 23.5C29.2173 24.1655 28.6774 24.7048 28.0111 24.7048H12.0775Z" fill="white"/>
</svg>
